<svg xmlns="http://www.w3.org/2000/svg" viewBox="0 0 54.83 54.83"><defs><style>.cls-1{isolation:isolate;}.cls-2,.cls-3{fill:#787878;stroke:#fff;stroke-miterlimit:10;}.cls-3{opacity:0.2;mix-blend-mode:overlay;}</style></defs><title>Opigno-module-ico</title><g class="cls-1"><g id="Calque_1" data-name="Calque 1"><path class="cls-2" d="M50.89,59.23c-.27-5.94,5.57-14.56,9.36-18.62a23.07,23.07,0,0,0-3.35-.25,22.76,22.76,0,1,0,0,45.51c6.57,0,7.33-11,11.48-15.42A12.35,12.35,0,0,1,50.89,59.23Z" transform="translate(-32.59 -32.59)"/><path class="cls-2" d="M56.53,55.94c9.67,0,19.91,10.33,16.18,20.9C75,72.87,86.33,64.91,86.33,60c0-14.86-11.46-26.91-26.33-26.91A26.91,26.91,0,0,0,33.09,60a28.5,28.5,0,0,0,5.06,15.94C36.94,65.63,44.5,55.94,56.53,55.94Z" transform="translate(-32.59 -32.59)"/><path class="cls-2" d="M60,33.09A26.79,26.79,0,0,0,42.8,39.3c13.28-6.69,25.89,9.4,25.89,22S61.31,84,48.75,84c-.32,0-.63,0-.94,0A26.91,26.91,0,1,0,60,33.09Z" transform="translate(-32.59 -32.59)"/><path class="cls-3" d="M38.5,43.7C45.35,58,46.83,72.35,42.9,81.08c-2.68-1.78-9.81-9.51-9.81-21.21A28,28,0,0,1,38.5,43.7Z" transform="translate(-32.59 -32.59)"/></g></g></svg>