<?xml version="1.0" encoding="UTF-8" standalone="no"?> <!-- Created with Vectornator for iOS (http://vectornator.io/) --><!DOCTYPE svg PUBLIC "-//W3C//DTD SVG 1.1//EN" "http://www.w3.org/Graphics/SVG/1.1/DTD/svg11.dtd">
<svg style="fill-rule:evenodd;clip-rule:evenodd;stroke-linecap:round;stroke-linejoin:round;" xmlns:vectornator="http://vectornator.io" xmlns:xlink="http://www.w3.org/1999/xlink" xmlns="http://www.w3.org/2000/svg" xml:space="preserve" version="1.1" viewBox="0 0 48 48">
<metadata>
<vectornator:setting key="DynamicGuides" value="1"/>
<vectornator:setting key="Units" value="Points"/>
<vectornator:setting key="RulersVisible" value="1"/>
<vectornator:setting key="SnapToGuides" value="1"/>
<vectornator:setting key="GridSpacing" value="36"/>
</metadata>
<defs>
<radialGradient cx="50.744" r="23.827" id="RadialGradient" gradientUnits="userSpaceOnUse" gradientTransform="matrix(1.14379 0 0 1.18856 -4.02305 -4.90622)" cy="33.882">
<stop stop-color="#bd8af5" offset="0"/>
<stop stop-color="#b88bf5" offset="0.137"/>
<stop stop-color="#a88ff3" offset="0.309"/>
<stop stop-color="#8f96f2" offset="0.499"/>
<stop stop-color="#6b9eef" offset="0.702"/>
<stop stop-color="#3eaaec" offset="0.913"/>
<stop stop-color="#29afea" offset="1"/>
</radialGradient>
<linearGradient y1="20.753" id="LinearGradient" x1="21" y2="41.352" x2="21" gradientUnits="userSpaceOnUse" gradientTransform="matrix(1.11655 0 0 1.11655 -2.79708 -3.14208)">
<stop stop-color="#124787" offset="0"/>
<stop stop-color="#173b75" offset="0.923"/>
<stop stop-color="#173a73" offset="1"/>
</linearGradient>
</defs>
<g id="Untitled" vectornator:layerName="Untitled">
<path d="M45.2144+42.6363L2.78564+42.6363C1.55186+42.6363+0.552551+41.637+0.552551+40.4032L0.552551+8.02337C0.552551+6.78959+1.55186+5.79028+2.78564+5.79028L45.2144+5.79028C46.4481+5.79028+47.4474+6.78959+47.4474+8.02337L47.4474+40.4032C47.4474+41.637+46.4481+42.6363+45.2144+42.6363Z" opacity="1" fill="url(#RadialGradient)"/>
<path d="M19.2156+21.1037C17.8501+19.7382+15.636+19.7382+14.2704+21.1037L0.552551+34.8205L0.552551+40.4032C0.552551+41.637+1.55186+42.6363+2.78564+42.6363L40.7482+42.6363L19.2156+21.1037Z" opacity="1" fill="url(#LinearGradient)"/>
<path d="M45.2144+42.6363C46.4481+42.6363+47.4474+41.637+47.4474+40.4032L47.4474+39.2866L33.7307+25.5699C32.3652+24.2043+30.151+24.2043+28.7855+25.5699L11.718+42.6363L45.2144+42.6363Z" opacity="1" fill="#436dcd"/>
<path d="M42.9813+14.7226L40.7482+14.7226C40.1318+14.7226+39.6316+14.2224+39.6316+13.6061L39.6316+11.373C39.6316+10.7567+40.1318+10.2565+40.7482+10.2565L42.9813+10.2565C43.5976+10.2565+44.0978+10.7567+44.0978+11.373L44.0978+13.6061C44.0978+14.2224+43.5976+14.7226+42.9813+14.7226Z" opacity="1" fill="#ffffff"/>
<path d="M42.9813+22.5385L40.7482+22.5385C40.1318+22.5385+39.6316+22.0382+39.6316+21.4219L39.6316+19.1888C39.6316+18.5725+40.1318+18.0723+40.7482+18.0723L42.9813+18.0723C43.5976+18.0723+44.0978+18.5725+44.0978+19.1888L44.0978+21.4219C44.0978+22.0382+43.5976+22.5385+42.9813+22.5385Z" opacity="1" fill="#ffffff"/>
<path d="M42.9813+30.3543L40.7482+30.3543C40.1318+30.3543+39.6316+29.8541+39.6316+29.2377L39.6316+27.0046C39.6316+26.3883+40.1318+25.8881+40.7482+25.8881L42.9813+25.8881C43.5976+25.8881+44.0978+26.3883+44.0978+27.0046L44.0978+29.2377C44.0978+29.8541+43.5976+30.3543+42.9813+30.3543Z" opacity="1" fill="#ffffff"/>
<path d="M42.9813+38.1701L40.7482+38.1701C40.1318+38.1701+39.6316+37.6699+39.6316+37.0535L39.6316+34.8205C39.6316+34.2041+40.1318+33.7039+40.7482+33.7039L42.9813+33.7039C43.5976+33.7039+44.0978+34.2041+44.0978+34.8205L44.0978+37.0535C44.0978+37.6699+43.5976+38.1701+42.9813+38.1701Z" opacity="1" fill="#ffffff"/>
<path d="M7.25182+14.7226L5.01873+14.7226C4.4024+14.7226+3.90219+14.2224+3.90219+13.6061L3.90219+11.373C3.90219+10.7567+4.4024+10.2565+5.01873+10.2565L7.25182+10.2565C7.86816+10.2565+8.36837+10.7567+8.36837+11.373L8.36837+13.6061C8.36837+14.2224+7.86816+14.7226+7.25182+14.7226Z" opacity="1" fill="#ffffff"/>
<path d="M7.25182+22.5385L5.01873+22.5385C4.4024+22.5385+3.90219+22.0382+3.90219+21.4219L3.90219+19.1888C3.90219+18.5725+4.4024+18.0723+5.01873+18.0723L7.25182+18.0723C7.86816+18.0723+8.36837+18.5725+8.36837+19.1888L8.36837+21.4219C8.36837+22.0382+7.86816+22.5385+7.25182+22.5385Z" opacity="1" fill="#ffffff"/>
<path d="M7.25182+30.3543L5.01873+30.3543C4.4024+30.3543+3.90219+29.8541+3.90219+29.2377L3.90219+27.0046C3.90219+26.3883+4.4024+25.8881+5.01873+25.8881L7.25182+25.8881C7.86816+25.8881+8.36837+26.3883+8.36837+27.0046L8.36837+29.2377C8.36837+29.8541+7.86816+30.3543+7.25182+30.3543Z" opacity="1" fill="#ffffff"/>
<path d="M7.25182+38.1701L5.01873+38.1701C4.4024+38.1701+3.90219+37.6699+3.90219+37.0535L3.90219+34.8205C3.90219+34.2041+4.4024+33.7039+5.01873+33.7039L7.25182+33.7039C7.86816+33.7039+8.36837+34.2041+8.36837+34.8205L8.36837+37.0535C8.36837+37.6699+7.86816+38.1701+7.25182+38.1701Z" opacity="1" fill="#ffffff"/>
<path d="M31.2363+22.855L17.9316+16.2613C17.5293+16.0581+17.0488+16.0777+16.6621+16.3121C16.2754+16.5425+16.0449+16.9566+16.0449+17.4019L16.0449+30.6011C16.0449+31.0425+16.2754+31.4566+16.6621+31.6871C16.873+31.816+17.1074+31.8785+17.3457+31.8785C17.5488+31.8785+17.748+31.8316+17.9316+31.7417L31.2402+25.1402C31.6777+24.9253+31.9551+24.4839+31.9551+23.9996C31.9551+23.5152+31.6738+23.0738+31.2363+22.855Z" opacity="1" fill="#ffffff"/>
</g>
</svg>
